<mxfile host="app.diagrams.net" modified="2023-05-05T22:34:37.614Z" agent="Mozilla/5.0 (Windows NT 6.1; Win64; x64) AppleWebKit/537.36 (KHTML, like Gecko) Chrome/109.0.0.0 Safari/537.36" etag="KGrXYe13yXloNiFrp0yC" version="21.2.9" type="device">
  <diagram id="C5RBs43oDa-KdzZeNtuy" name="Page-1">
    <mxGraphModel dx="1434" dy="796" grid="1" gridSize="10" guides="1" tooltips="1" connect="1" arrows="1" fold="1" page="1" pageScale="1" pageWidth="827" pageHeight="1169" math="0" shadow="0">
      <root>
        <mxCell id="WIyWlLk6GJQsqaUBKTNV-0" />
        <mxCell id="WIyWlLk6GJQsqaUBKTNV-1" parent="WIyWlLk6GJQsqaUBKTNV-0" />
        <mxCell id="hque3iSPazo7fW925mOJ-2" value="" style="edgeStyle=orthogonalEdgeStyle;rounded=0;orthogonalLoop=1;jettySize=auto;html=1;" edge="1" parent="WIyWlLk6GJQsqaUBKTNV-1" source="hque3iSPazo7fW925mOJ-0" target="hque3iSPazo7fW925mOJ-1">
          <mxGeometry relative="1" as="geometry" />
        </mxCell>
        <mxCell id="hque3iSPazo7fW925mOJ-0" value="I" style="ellipse;whiteSpace=wrap;html=1;" vertex="1" parent="WIyWlLk6GJQsqaUBKTNV-1">
          <mxGeometry x="370" y="10" width="120" height="80" as="geometry" />
        </mxCell>
        <mxCell id="hque3iSPazo7fW925mOJ-4" value="" style="edgeStyle=orthogonalEdgeStyle;rounded=0;orthogonalLoop=1;jettySize=auto;html=1;" edge="1" parent="WIyWlLk6GJQsqaUBKTNV-1" source="hque3iSPazo7fW925mOJ-1" target="hque3iSPazo7fW925mOJ-3">
          <mxGeometry relative="1" as="geometry" />
        </mxCell>
        <mxCell id="hque3iSPazo7fW925mOJ-23" value="" style="edgeStyle=orthogonalEdgeStyle;rounded=0;orthogonalLoop=1;jettySize=auto;html=1;" edge="1" parent="WIyWlLk6GJQsqaUBKTNV-1" source="hque3iSPazo7fW925mOJ-1" target="hque3iSPazo7fW925mOJ-22">
          <mxGeometry relative="1" as="geometry" />
        </mxCell>
        <mxCell id="hque3iSPazo7fW925mOJ-36" value="" style="edgeStyle=orthogonalEdgeStyle;rounded=0;orthogonalLoop=1;jettySize=auto;html=1;" edge="1" parent="WIyWlLk6GJQsqaUBKTNV-1" source="hque3iSPazo7fW925mOJ-1" target="hque3iSPazo7fW925mOJ-35">
          <mxGeometry relative="1" as="geometry" />
        </mxCell>
        <mxCell id="hque3iSPazo7fW925mOJ-1" value="mostrar pantalla inicial" style="whiteSpace=wrap;html=1;" vertex="1" parent="WIyWlLk6GJQsqaUBKTNV-1">
          <mxGeometry x="370" y="120" width="120" height="60" as="geometry" />
        </mxCell>
        <mxCell id="hque3iSPazo7fW925mOJ-6" value="" style="edgeStyle=orthogonalEdgeStyle;rounded=0;orthogonalLoop=1;jettySize=auto;html=1;" edge="1" parent="WIyWlLk6GJQsqaUBKTNV-1" source="hque3iSPazo7fW925mOJ-3" target="hque3iSPazo7fW925mOJ-5">
          <mxGeometry relative="1" as="geometry" />
        </mxCell>
        <mxCell id="hque3iSPazo7fW925mOJ-3" value="cargar alumno?" style="rhombus;whiteSpace=wrap;html=1;" vertex="1" parent="WIyWlLk6GJQsqaUBKTNV-1">
          <mxGeometry x="120" y="110" width="80" height="80" as="geometry" />
        </mxCell>
        <mxCell id="hque3iSPazo7fW925mOJ-8" value="" style="edgeStyle=orthogonalEdgeStyle;rounded=0;orthogonalLoop=1;jettySize=auto;html=1;" edge="1" parent="WIyWlLk6GJQsqaUBKTNV-1" source="hque3iSPazo7fW925mOJ-5" target="hque3iSPazo7fW925mOJ-7">
          <mxGeometry relative="1" as="geometry" />
        </mxCell>
        <mxCell id="hque3iSPazo7fW925mOJ-5" value="Mostrar pantalla de formulario" style="whiteSpace=wrap;html=1;" vertex="1" parent="WIyWlLk6GJQsqaUBKTNV-1">
          <mxGeometry x="100" y="210" width="120" height="60" as="geometry" />
        </mxCell>
        <mxCell id="hque3iSPazo7fW925mOJ-9" value="no" style="edgeStyle=orthogonalEdgeStyle;rounded=0;orthogonalLoop=1;jettySize=auto;html=1;exitX=0.5;exitY=0;exitDx=0;exitDy=0;entryX=0.25;entryY=0;entryDx=0;entryDy=0;" edge="1" parent="WIyWlLk6GJQsqaUBKTNV-1" source="hque3iSPazo7fW925mOJ-7" target="hque3iSPazo7fW925mOJ-5">
          <mxGeometry relative="1" as="geometry" />
        </mxCell>
        <mxCell id="hque3iSPazo7fW925mOJ-21" value="si" style="edgeStyle=orthogonalEdgeStyle;rounded=0;orthogonalLoop=1;jettySize=auto;html=1;exitX=0.5;exitY=1;exitDx=0;exitDy=0;" edge="1" parent="WIyWlLk6GJQsqaUBKTNV-1" source="hque3iSPazo7fW925mOJ-7" target="hque3iSPazo7fW925mOJ-15">
          <mxGeometry relative="1" as="geometry">
            <Array as="points">
              <mxPoint x="40" y="300" />
              <mxPoint x="160" y="300" />
            </Array>
          </mxGeometry>
        </mxCell>
        <mxCell id="hque3iSPazo7fW925mOJ-7" value="formulario valido?" style="rhombus;whiteSpace=wrap;html=1;" vertex="1" parent="WIyWlLk6GJQsqaUBKTNV-1">
          <mxGeometry y="200" width="80" height="80" as="geometry" />
        </mxCell>
        <mxCell id="hque3iSPazo7fW925mOJ-19" value="si" style="edgeStyle=orthogonalEdgeStyle;rounded=0;orthogonalLoop=1;jettySize=auto;html=1;exitX=1;exitY=0.5;exitDx=0;exitDy=0;entryX=0.5;entryY=0;entryDx=0;entryDy=0;entryPerimeter=0;" edge="1" parent="WIyWlLk6GJQsqaUBKTNV-1" source="hque3iSPazo7fW925mOJ-15" target="hque3iSPazo7fW925mOJ-17">
          <mxGeometry relative="1" as="geometry" />
        </mxCell>
        <mxCell id="hque3iSPazo7fW925mOJ-20" value="no" style="edgeStyle=orthogonalEdgeStyle;rounded=0;orthogonalLoop=1;jettySize=auto;html=1;exitX=0;exitY=0.5;exitDx=0;exitDy=0;entryX=0.5;entryY=0;entryDx=0;entryDy=0;entryPerimeter=0;" edge="1" parent="WIyWlLk6GJQsqaUBKTNV-1" source="hque3iSPazo7fW925mOJ-15" target="hque3iSPazo7fW925mOJ-16">
          <mxGeometry relative="1" as="geometry" />
        </mxCell>
        <mxCell id="hque3iSPazo7fW925mOJ-15" value="alumno ya existe?" style="rhombus;whiteSpace=wrap;html=1;" vertex="1" parent="WIyWlLk6GJQsqaUBKTNV-1">
          <mxGeometry x="120" y="310" width="80" height="80" as="geometry" />
        </mxCell>
        <mxCell id="hque3iSPazo7fW925mOJ-16" value="insertar alumno" style="shape=cylinder3;whiteSpace=wrap;html=1;boundedLbl=1;backgroundOutline=1;size=15;" vertex="1" parent="WIyWlLk6GJQsqaUBKTNV-1">
          <mxGeometry x="70" y="410" width="60" height="80" as="geometry" />
        </mxCell>
        <mxCell id="hque3iSPazo7fW925mOJ-17" value="actualizar BD" style="shape=cylinder3;whiteSpace=wrap;html=1;boundedLbl=1;backgroundOutline=1;size=15;" vertex="1" parent="WIyWlLk6GJQsqaUBKTNV-1">
          <mxGeometry x="190" y="410" width="60" height="80" as="geometry" />
        </mxCell>
        <mxCell id="hque3iSPazo7fW925mOJ-25" value="" style="edgeStyle=orthogonalEdgeStyle;rounded=0;orthogonalLoop=1;jettySize=auto;html=1;" edge="1" parent="WIyWlLk6GJQsqaUBKTNV-1" source="hque3iSPazo7fW925mOJ-22" target="hque3iSPazo7fW925mOJ-24">
          <mxGeometry relative="1" as="geometry" />
        </mxCell>
        <mxCell id="hque3iSPazo7fW925mOJ-22" value="cargar &lt;br&gt;curso?" style="rhombus;whiteSpace=wrap;html=1;" vertex="1" parent="WIyWlLk6GJQsqaUBKTNV-1">
          <mxGeometry x="700" y="110" width="80" height="80" as="geometry" />
        </mxCell>
        <mxCell id="hque3iSPazo7fW925mOJ-32" style="edgeStyle=orthogonalEdgeStyle;rounded=0;orthogonalLoop=1;jettySize=auto;html=1;exitX=1;exitY=0.5;exitDx=0;exitDy=0;entryX=0;entryY=0.5;entryDx=0;entryDy=0;" edge="1" parent="WIyWlLk6GJQsqaUBKTNV-1" source="hque3iSPazo7fW925mOJ-24" target="hque3iSPazo7fW925mOJ-28">
          <mxGeometry relative="1" as="geometry" />
        </mxCell>
        <mxCell id="hque3iSPazo7fW925mOJ-24" value="mostrar pantalla de solicitud de curso" style="whiteSpace=wrap;html=1;" vertex="1" parent="WIyWlLk6GJQsqaUBKTNV-1">
          <mxGeometry x="680" y="210" width="120" height="60" as="geometry" />
        </mxCell>
        <mxCell id="hque3iSPazo7fW925mOJ-26" value="no" style="edgeStyle=orthogonalEdgeStyle;rounded=0;orthogonalLoop=1;jettySize=auto;html=1;exitX=0.5;exitY=0;exitDx=0;exitDy=0;entryX=0.817;entryY=0;entryDx=0;entryDy=0;entryPerimeter=0;" edge="1" parent="WIyWlLk6GJQsqaUBKTNV-1" source="hque3iSPazo7fW925mOJ-28" target="hque3iSPazo7fW925mOJ-24">
          <mxGeometry relative="1" as="geometry">
            <mxPoint x="950" y="205" as="targetPoint" />
          </mxGeometry>
        </mxCell>
        <mxCell id="hque3iSPazo7fW925mOJ-30" value="si" style="edgeStyle=orthogonalEdgeStyle;rounded=0;orthogonalLoop=1;jettySize=auto;html=1;exitX=0.5;exitY=1;exitDx=0;exitDy=0;" edge="1" parent="WIyWlLk6GJQsqaUBKTNV-1" source="hque3iSPazo7fW925mOJ-28" target="hque3iSPazo7fW925mOJ-29">
          <mxGeometry relative="1" as="geometry">
            <Array as="points">
              <mxPoint x="860" y="295" />
              <mxPoint x="740" y="295" />
            </Array>
          </mxGeometry>
        </mxCell>
        <mxCell id="hque3iSPazo7fW925mOJ-28" value="curso existe?" style="rhombus;whiteSpace=wrap;html=1;" vertex="1" parent="WIyWlLk6GJQsqaUBKTNV-1">
          <mxGeometry x="820" y="200" width="80" height="80" as="geometry" />
        </mxCell>
        <mxCell id="hque3iSPazo7fW925mOJ-34" value="" style="edgeStyle=orthogonalEdgeStyle;rounded=0;orthogonalLoop=1;jettySize=auto;html=1;" edge="1" parent="WIyWlLk6GJQsqaUBKTNV-1" source="hque3iSPazo7fW925mOJ-29" target="hque3iSPazo7fW925mOJ-33">
          <mxGeometry relative="1" as="geometry" />
        </mxCell>
        <mxCell id="hque3iSPazo7fW925mOJ-29" value="seleccionar de la base de datos al alumno con mas promedio" style="shape=cylinder3;whiteSpace=wrap;html=1;boundedLbl=1;backgroundOutline=1;size=15;" vertex="1" parent="WIyWlLk6GJQsqaUBKTNV-1">
          <mxGeometry x="685" y="310" width="110" height="120" as="geometry" />
        </mxCell>
        <mxCell id="hque3iSPazo7fW925mOJ-33" value="mostrar alumno" style="whiteSpace=wrap;html=1;" vertex="1" parent="WIyWlLk6GJQsqaUBKTNV-1">
          <mxGeometry x="680" y="450" width="120" height="60" as="geometry" />
        </mxCell>
        <mxCell id="hque3iSPazo7fW925mOJ-46" style="edgeStyle=orthogonalEdgeStyle;rounded=0;orthogonalLoop=1;jettySize=auto;html=1;exitX=0;exitY=0.5;exitDx=0;exitDy=0;entryX=1;entryY=0.5;entryDx=0;entryDy=0;" edge="1" parent="WIyWlLk6GJQsqaUBKTNV-1" source="hque3iSPazo7fW925mOJ-35" target="hque3iSPazo7fW925mOJ-41">
          <mxGeometry relative="1" as="geometry" />
        </mxCell>
        <mxCell id="hque3iSPazo7fW925mOJ-35" value="mostrar pantalla de formulario de alumno" style="whiteSpace=wrap;html=1;" vertex="1" parent="WIyWlLk6GJQsqaUBKTNV-1">
          <mxGeometry x="370" y="210" width="120" height="60" as="geometry" />
        </mxCell>
        <mxCell id="hque3iSPazo7fW925mOJ-40" value="" style="edgeStyle=orthogonalEdgeStyle;rounded=0;orthogonalLoop=1;jettySize=auto;html=1;" edge="1" parent="WIyWlLk6GJQsqaUBKTNV-1" source="hque3iSPazo7fW925mOJ-37" target="hque3iSPazo7fW925mOJ-39">
          <mxGeometry relative="1" as="geometry" />
        </mxCell>
        <mxCell id="hque3iSPazo7fW925mOJ-37" value="seleccionar alumno" style="shape=cylinder3;whiteSpace=wrap;html=1;boundedLbl=1;backgroundOutline=1;size=15;" vertex="1" parent="WIyWlLk6GJQsqaUBKTNV-1">
          <mxGeometry x="390" y="305" width="80" height="90" as="geometry" />
        </mxCell>
        <mxCell id="hque3iSPazo7fW925mOJ-39" value="mostrar en pantalla" style="whiteSpace=wrap;html=1;" vertex="1" parent="WIyWlLk6GJQsqaUBKTNV-1">
          <mxGeometry x="370" y="420" width="120" height="60" as="geometry" />
        </mxCell>
        <mxCell id="hque3iSPazo7fW925mOJ-47" style="edgeStyle=orthogonalEdgeStyle;rounded=0;orthogonalLoop=1;jettySize=auto;html=1;exitX=0.5;exitY=0;exitDx=0;exitDy=0;entryX=0.85;entryY=0.7;entryDx=0;entryDy=0;entryPerimeter=0;" edge="1" parent="WIyWlLk6GJQsqaUBKTNV-1" source="hque3iSPazo7fW925mOJ-41" target="hque3iSPazo7fW925mOJ-3">
          <mxGeometry relative="1" as="geometry">
            <Array as="points">
              <mxPoint x="300" y="180" />
              <mxPoint x="188" y="180" />
            </Array>
          </mxGeometry>
        </mxCell>
        <mxCell id="hque3iSPazo7fW925mOJ-48" value="no" style="edgeLabel;html=1;align=center;verticalAlign=middle;resizable=0;points=[];" vertex="1" connectable="0" parent="hque3iSPazo7fW925mOJ-47">
          <mxGeometry x="-0.1918" y="2" relative="1" as="geometry">
            <mxPoint as="offset" />
          </mxGeometry>
        </mxCell>
        <mxCell id="hque3iSPazo7fW925mOJ-49" style="edgeStyle=orthogonalEdgeStyle;rounded=0;orthogonalLoop=1;jettySize=auto;html=1;exitX=0.5;exitY=1;exitDx=0;exitDy=0;entryX=0;entryY=0.578;entryDx=0;entryDy=0;entryPerimeter=0;" edge="1" parent="WIyWlLk6GJQsqaUBKTNV-1" source="hque3iSPazo7fW925mOJ-41" target="hque3iSPazo7fW925mOJ-37">
          <mxGeometry relative="1" as="geometry" />
        </mxCell>
        <mxCell id="hque3iSPazo7fW925mOJ-50" value="si" style="edgeLabel;html=1;align=center;verticalAlign=middle;resizable=0;points=[];" vertex="1" connectable="0" parent="hque3iSPazo7fW925mOJ-49">
          <mxGeometry x="0.3293" y="1" relative="1" as="geometry">
            <mxPoint as="offset" />
          </mxGeometry>
        </mxCell>
        <mxCell id="hque3iSPazo7fW925mOJ-41" value="alumno existe?" style="rhombus;whiteSpace=wrap;html=1;" vertex="1" parent="WIyWlLk6GJQsqaUBKTNV-1">
          <mxGeometry x="260" y="200" width="80" height="80" as="geometry" />
        </mxCell>
      </root>
    </mxGraphModel>
  </diagram>
</mxfile>
